# xmcd
#
# Track frame offsets:
#	150
#	10403
#	20866
#	28714
#	41088
#	53869
#	69617
#	86933
#	98822
#	112092
#	120478
#	134672
#	146731
#
# Disc length: 2127 seconds
#
# Revision: 0
# Processed by: cddbd v1.4PL0 Copyright (c) Steve Scherf et al.
# Submitted via: EasyCDDAExtractor 4.6.0.1
#
DISCID=c5084d0d
DTITLE=SWINING BLUE JEANS, THE - HIPPY HIPPY SHAKE
DYEAR=1900
DGENRE=
TTITLE0=YOU'RE NO GOOD
TTITLE1=GOOD GOLLY MISS MOLLY
TTITLE2=HIPPY HIPPY SHAKE
TTITLE3=ANGEL
TTITLE4=STILL THE ONE
TTITLE5=I'M AN OLD ROCK 'N' ROLLER
TTITLE6=YOU WIN AGAIN
TTITLE7=BANGING IN MY HEAD
TTITLE8=HIGHER THAN A KITE
TTITLE9=POETS
TTITLE10=LOVE MACHINE
TTITLE11=WHOLE LOTTA TROUBLE
TTITLE12=WAY DOWN YONDER
EXTD=
EXTT0=
EXTT1=
EXTT2=
EXTT3=
EXTT4=
EXTT5=
EXTT6=
EXTT7=
EXTT8=
EXTT9=
EXTT10=
EXTT11=
EXTT12=
PLAYORDER=
